# xmcd
#
# Track frame offsets:
#	150
#	19161
#	39767
#	56869
#	73993
#	93582
#	116734
#	135253
#	153913
#	172190
#
# Disc length: 2548 seconds
#
# Revision: 2
# Processed by: cddbd v1.5.2PL0 Copyright (c) Steve Scherf et al.
# Submitted via: EZCDAudioConverter 7.1.5.1
#
DISCID=8709f20a
DTITLE=邓丽君 - 我只在乎你
DYEAR=1987
DGENRE=
TTITLE0=酒醉的探戈
TTITLE1=像故事般温柔
TTITLE2=命运之川
TTITLE3=爱人
TTITLE4=午夜微风
TTITLE5=夏日圣诞
TTITLE6=非龙非彲
TTITLE7=不着痕迹
TTITLE8=心路过黄昏
TTITLE9=我只在乎你
EXTD=
EXTT0=
EXTT1=
EXTT2=
EXTT3=
EXTT4=
EXTT5=
EXTT6=
EXTT7=
EXTT8=
EXTT9=
PLAYORDER=
